<mxfile host="app.diagrams.net" modified="2024-06-21T07:40:04.279Z" agent="Mozilla/5.0 (Windows NT 10.0; Win64; x64) AppleWebKit/537.36 (KHTML, like Gecko) Chrome/125.0.0.0 Safari/537.36 Edg/125.0.0.0" version="24.6.0" etag="w8n6g8WKU6TlvZzyghWT" type="github">
  <diagram name="Page-1" id="KTv1TgLFBY3qtoSKa1A8">
    <mxGraphModel>
      <root>
        <mxCell id="0" />
        <mxCell id="1" parent="0" />
      </root>
    </mxGraphModel>
  </diagram>
</mxfile>
